<mxfile host="app.diagrams.net" modified="2023-06-20T17:17:09.065Z" agent="Mozilla/5.0 (Windows NT 10.0; Win64; x64; rv:109.0) Gecko/20100101 Firefox/114.0" version="21.5.0" etag="LxGVHRTHqFAoy0rRlouV" type="github">
  <diagram name="PÃ¡gina-1" id="0hCm5TBf1mzVHIIK37kB">
    <mxGraphModel>
      <root>
        <mxCell id="0" />
        <mxCell id="1" parent="0" />
      </root>
    </mxGraphModel>
  </diagram>
</mxfile>
